<svg width="100" height="100" viewBox="0 0 100 100" xmlns="http://www.w3.org/2000/svg">
  <defs>
    <!-- 3D Lighting gradients -->
    <radialGradient id="faceGradient3D2" cx="30%" cy="30%">
      <stop offset="0%" style="stop-color:#f4c2a1"/>
      <stop offset="70%" style="stop-color:#e6b084"/>
      <stop offset="100%" style="stop-color:#d1976f"/>
    </radialGradient>
    
    <linearGradient id="hairGradient3D2" x1="0%" y1="0%" x2="100%" y2="100%">
      <stop offset="0%" style="stop-color:#2c1810"/>
      <stop offset="50%" style="stop-color:#1a0f08"/>
      <stop offset="100%" style="stop-color:#0f0604"/>
    </linearGradient>
    
    <radialGradient id="bodyGradient3D2" cx="30%" cy="20%">
      <stop offset="0%" style="stop-color:#7ee8e0"/>
      <stop offset="70%" style="stop-color:#4ECDC4"/>
      <stop offset="100%" style="stop-color:#3bb5ad"/>
    </radialGradient>
    
    <filter id="shadow2" x="-50%" y="-50%" width="200%" height="200%">
      <feDropShadow dx="2" dy="3" stdDeviation="2" flood-opacity="0.3"/>
    </filter>
    
    <filter id="innerShadow2" x="-50%" y="-50%" width="200%" height="200%">
      <feDropShadow dx="1" dy="1" stdDeviation="1" flood-opacity="0.2"/>
    </filter>
  </defs>
  
  <!-- Background with 3D effect -->
  <circle cx="50" cy="50" r="47" fill="#f0fffe" stroke="#b3f0ed" stroke-width="2" filter="url(#shadow2)"/>
  <circle cx="50" cy="50" r="45" fill="none" stroke="#ffffff" stroke-width="1" opacity="0.6"/>
  
  <!-- Head shadow (cast on background) -->
  <ellipse cx="52" cy="68" rx="24" ry="4" fill="#000000" opacity="0.1"/>
  
  <!-- Face with 3D shading -->
  <circle cx="50" cy="45" r="23" fill="url(#faceGradient3D2)" filter="url(#shadow2)"/>
  <!-- Face highlight -->
  <ellipse cx="46" cy="40" rx="8" ry="12" fill="#ffffff" opacity="0.2"/>
  <!-- Face contour shadow -->
  <path d="M 65 50 Q 70 45 68 40 Q 65 45 65 50" fill="#d1976f" opacity="0.6"/>
  
  <!-- Hair with 3D volume (short/curly style) -->
  <path d="M 27 37 Q 32 22 40 25 Q 45 20 50 22 Q 55 20 60 25 Q 68 22 73 37 Q 70 30 50 25 Q 30 30 27 37" fill="url(#hairGradient3D2)" filter="url(#shadow2)"/>
  <!-- Hair curls and texture -->
  <circle cx="35" cy="32" r="3" fill="url(#hairGradient3D2)" opacity="0.8"/>
  <circle cx="42" cy="28" r="2.5" fill="url(#hairGradient3D2)" opacity="0.8"/>
  <circle cx="50" cy="27" r="2" fill="url(#hairGradient3D2)" opacity="0.8"/>
  <circle cx="58" cy="28" r="2.5" fill="url(#hairGradient3D2)" opacity="0.8"/>
  <circle cx="65" cy="32" r="3" fill="url(#hairGradient3D2)" opacity="0.8"/>
  <!-- Hair highlights -->
  <circle cx="35" cy="31" r="1" fill="#4a3426" opacity="0.6"/>
  <circle cx="50" cy="26" r="0.8" fill="#4a3426" opacity="0.6"/>
  <circle cx="65" cy="31" r="1" fill="#4a3426" opacity="0.6"/>
  
  <!-- Eyes with 3D depth -->
  <ellipse cx="43" cy="42" rx="3" ry="2.5" fill="#ffffff" filter="url(#innerShadow2)"/>
  <ellipse cx="57" cy="42" rx="3" ry="2.5" fill="#ffffff" filter="url(#innerShadow2)"/>
  <circle cx="43" cy="42" r="2" fill="#2d4b2e"/>
  <circle cx="57" cy="42" r="2" fill="#2d4b2e"/>
  <circle cx="43" cy="42" r="1.2" fill="#1a2e1c"/>
  <circle cx="57" cy="42" r="1.2" fill="#1a2e1c"/>
  <!-- Eye highlights -->
  <circle cx="44" cy="41" r="0.8" fill="#ffffff" opacity="0.9"/>
  <circle cx="58" cy="41" r="0.8" fill="#ffffff" opacity="0.9"/>
  <circle cx="43.2" cy="41.2" r="0.3" fill="#ffffff"/>
  <circle cx="57.2" cy="41.2" r="0.3" fill="#ffffff"/>
  
  <!-- Eyebrows with 3D effect -->
  <path d="M 38 38 Q 43 36 48 38" stroke="#0f0604" stroke-width="1.5" fill="none" opacity="0.8"/>
  <path d="M 52 38 Q 57 36 62 38" stroke="#0f0604" stroke-width="1.5" fill="none" opacity="0.8"/>
  
  <!-- Nose with 3D shading -->
  <ellipse cx="50" cy="47" rx="1.5" ry="2" fill="#e6b084"/>
  <ellipse cx="49.5" cy="46.5" rx="0.8" ry="1" fill="#f4c2a1" opacity="0.8"/>
  <circle cx="49" cy="48" r="0.3" fill="#d1976f" opacity="0.6"/>
  <circle cx="51" cy="48" r="0.3" fill="#d1976f" opacity="0.6"/>
  
  <!-- Mouth with 3D depth -->
  <ellipse cx="50" cy="52" rx="4" ry="1.5" fill="#c2725e" opacity="0.8"/>
  <path d="M 47 52 Q 50 54 53 52" stroke="#ad6249" stroke-width="1" fill="none"/>
  <!-- Mouth highlight -->
  <ellipse cx="50" cy="51.5" rx="2.5" ry="0.8" fill="#e6967a" opacity="0.6"/>
  
  <!-- Cheeks -->
  <circle cx="38" cy="48" r="3" fill="#f2a68a" opacity="0.3"/>
  <circle cx="62" cy="48" r="3" fill="#f2a68a" opacity="0.3"/>
  
  <!-- Body with 3D shading -->
  <ellipse cx="52" cy="90" rx="22" ry="3" fill="#000000" opacity="0.1"/>
  <rect x="39" y="65" width="22" height="28" rx="4" fill="url(#bodyGradient3D2)" filter="url(#shadow2)"/>
  <!-- Body highlight -->
  <rect x="41" y="67" width="6" height="20" rx="2" fill="#ffffff" opacity="0.3"/>
  <!-- Body pattern -->
  <circle cx="46" cy="74" r="2" fill="#ffffff" opacity="0.4"/>
  <circle cx="54" cy="78" r="2" fill="#ffffff" opacity="0.4"/>
  <circle cx="46" cy="82" r="2" fill="#ffffff" opacity="0.4"/>
</svg>