<svg width="100" height="100" viewBox="0 0 100 100" xmlns="http://www.w3.org/2000/svg">
  <defs>
    <!-- 3D Lighting gradients -->
    <radialGradient id="faceGradient3D" cx="30%" cy="30%">
      <stop offset="0%" style="stop-color:#ffcab0"/>
      <stop offset="70%" style="stop-color:#f7b699"/>
      <stop offset="100%" style="stop-color:#e8a087"/>
    </radialGradient>
    
    <linearGradient id="hairGradient3D" x1="0%" y1="0%" x2="100%" y2="100%">
      <stop offset="0%" style="stop-color:#a0522d"/>
      <stop offset="50%" style="stop-color:#8b4513"/>
      <stop offset="100%" style="stop-color:#654321"/>
    </linearGradient>
    
    <radialGradient id="bodyGradient3D" cx="30%" cy="20%">
      <stop offset="0%" style="stop-color:#ff9faa"/>
      <stop offset="70%" style="stop-color:#FF6B7A"/>
      <stop offset="100%" style="stop-color:#e85565"/>
    </radialGradient>
    
    <filter id="shadow" x="-50%" y="-50%" width="200%" height="200%">
      <feDropShadow dx="2" dy="3" stdDeviation="2" flood-opacity="0.3"/>
    </filter>
    
    <filter id="innerShadow" x="-50%" y="-50%" width="200%" height="200%">
      <feDropShadow dx="1" dy="1" stdDeviation="1" flood-opacity="0.2"/>
    </filter>
  </defs>
  
  <!-- Background with 3D effect -->
  <circle cx="50" cy="50" r="47" fill="#fdf2f4" stroke="#ffb3c1" stroke-width="2" filter="url(#shadow)"/>
  <circle cx="50" cy="50" r="45" fill="none" stroke="#ffffff" stroke-width="1" opacity="0.6"/>
  
  <!-- Head shadow (cast on background) -->
  <ellipse cx="52" cy="68" rx="24" ry="4" fill="#000000" opacity="0.1"/>
  
  <!-- Face with 3D shading -->
  <circle cx="50" cy="45" r="23" fill="url(#faceGradient3D)" filter="url(#shadow)"/>
  <!-- Face highlight -->
  <ellipse cx="46" cy="40" rx="8" ry="12" fill="#ffffff" opacity="0.2"/>
  <!-- Face contour shadow -->
  <path d="M 65 50 Q 70 45 68 40 Q 65 45 65 50" fill="#e8a087" opacity="0.6"/>
  
  <!-- Hair with 3D volume -->
  <path d="M 27 35 Q 35 18 50 20 Q 65 18 73 35 Q 72 25 50 22 Q 28 25 27 35" fill="url(#hairGradient3D)" filter="url(#shadow)"/>
  <!-- Hair highlight -->
  <path d="M 35 28 Q 45 24 55 28 Q 50 26 45 26 Q 40 26 35 28" fill="#cd853f" opacity="0.7"/>
  <!-- Hair strands for texture -->
  <path d="M 32 30 Q 35 25 38 30" stroke="#654321" stroke-width="0.5" fill="none" opacity="0.8"/>
  <path d="M 42 28 Q 45 23 48 28" stroke="#654321" stroke-width="0.5" fill="none" opacity="0.8"/>
  <path d="M 52 28 Q 55 23 58 28" stroke="#654321" stroke-width="0.5" fill="none" opacity="0.8"/>
  <path d="M 62 30 Q 65 25 68 30" stroke="#654321" stroke-width="0.5" fill="none" opacity="0.8"/>
  
  <!-- Eyes with 3D depth -->
  <ellipse cx="43" cy="42" rx="3" ry="2.5" fill="#ffffff" filter="url(#innerShadow)"/>
  <ellipse cx="57" cy="42" rx="3" ry="2.5" fill="#ffffff" filter="url(#innerShadow)"/>
  <circle cx="43" cy="42" r="2" fill="#4a4a4a"/>
  <circle cx="57" cy="42" r="2" fill="#4a4a4a"/>
  <circle cx="43" cy="42" r="1.2" fill="#2c2c2c"/>
  <circle cx="57" cy="42" r="1.2" fill="#2c2c2c"/>
  <!-- Eye highlights -->
  <circle cx="44" cy="41" r="0.8" fill="#ffffff" opacity="0.9"/>
  <circle cx="58" cy="41" r="0.8" fill="#ffffff" opacity="0.9"/>
  <circle cx="43.2" cy="41.2" r="0.3" fill="#ffffff"/>
  <circle cx="57.2" cy="41.2" r="0.3" fill="#ffffff"/>
  
  <!-- Eyebrows with 3D effect -->
  <path d="M 38 38 Q 43 36 48 38" stroke="#654321" stroke-width="1.5" fill="none" opacity="0.8"/>
  <path d="M 52 38 Q 57 36 62 38" stroke="#654321" stroke-width="1.5" fill="none" opacity="0.8"/>
  
  <!-- Nose with 3D shading -->
  <ellipse cx="50" cy="47" rx="1.5" ry="2" fill="#f7b699"/>
  <ellipse cx="49.5" cy="46.5" rx="0.8" ry="1" fill="#ffcab0" opacity="0.8"/>
  <circle cx="49" cy="48" r="0.3" fill="#e8a087" opacity="0.6"/>
  <circle cx="51" cy="48" r="0.3" fill="#e8a087" opacity="0.6"/>
  
  <!-- Mouth with 3D depth -->
  <ellipse cx="50" cy="52" rx="4" ry="1.5" fill="#d4756b" opacity="0.8"/>
  <path d="M 47 52 Q 50 54 53 52" stroke="#c06055" stroke-width="1" fill="none"/>
  <!-- Mouth highlight -->
  <ellipse cx="50" cy="51.5" rx="2.5" ry="0.8" fill="#ff9999" opacity="0.6"/>
  
  <!-- Cheeks -->
  <circle cx="38" cy="48" r="3" fill="#ff9999" opacity="0.3"/>
  <circle cx="62" cy="48" r="3" fill="#ff9999" opacity="0.3"/>
  
  <!-- Body with 3D shading -->
  <ellipse cx="52" cy="90" rx="22" ry="3" fill="#000000" opacity="0.1"/>
  <rect x="39" y="65" width="22" height="28" rx="4" fill="url(#bodyGradient3D)" filter="url(#shadow)"/>
  <!-- Body highlight -->
  <rect x="41" y="67" width="6" height="20" rx="2" fill="#ffffff" opacity="0.3"/>
  <!-- Body buttons -->
  <circle cx="50" cy="72" r="1" fill="#ffffff" opacity="0.8"/>
  <circle cx="50" cy="78" r="1" fill="#ffffff" opacity="0.8"/>
  <circle cx="50" cy="84" r="1" fill="#ffffff" opacity="0.8"/>
</svg>